<?xml version="1.0" standalone="no"?>
<!DOCTYPE svg PUBLIC "-//W3C//DTD SVG 20010904//EN"
 "http://www.w3.org/TR/2001/REC-SVG-20010904/DTD/svg10.dtd">
<svg version="1.0" xmlns="http://www.w3.org/2000/svg"
 width="1003.000000pt" height="1003.000000pt" viewBox="0 0 1003.000000 1003.000000"
 preserveAspectRatio="xMidYMid meet">
<metadata>
Created by potrace 1.11, written by Peter Selinger 2001-2013
</metadata>
<g transform="translate(0.000000,1003.000000) scale(0.100000,-0.100000)"
fill="#000000" stroke="none">
<path d="M0 5020 l0 -5000 5015 0 5015 0 0 5000 0 5000 -5015 0 -5015 0 0
-5000z m9464 4317 c8 -13 -2 -29 -50 -79 -34 -35 -66 -79 -72 -98 -182 -568
-1102 -3735 -1102 -3792 0 -4 63 -8 141 -8 l140 0 14 -35 c11 -24 12 -41 5
-60 l-10 -25 -164 0 -164 0 -11 -32 c-12 -38 -451 -1678 -695 -2593 -216 -813
-398 -1511 -436 -1670 -31 -127 -31 -128 -15 -192 16 -62 15 -65 -2 -79 -17
-13 -73 -11 -96 3 -18 11 -37 74 -37 123 0 87 180 778 901 3463 144 533 259
971 256 973 -2 2 -78 9 -168 15 -269 18 -1085 2 -1294 -26 l-40 -6 -54 -197
c-30 -108 -105 -384 -168 -612 -132 -482 -337 -1249 -418 -1565 -31 -121 -58
-228 -61 -237 -4 -12 0 -18 10 -18 36 0 32 -50 -10 -99 -28 -33 -68 -40 -119
-21 -25 9 -26 13 -20 53 21 129 136 587 311 1237 71 262 383 1404 400 1463 5
16 -11 17 -248 17 -397 0 -905 -26 -1245 -63 l-108 -12 -5 -30 -5 -30 -82 0
c-91 0 -123 17 -123 65 0 35 24 56 93 79 158 55 434 75 1242 92 248 5 468 12
489 16 l39 8 104 380 c265 969 572 2004 849 2860 41 127 78 237 83 244 4 8 20
18 35 22 35 10 76 -14 76 -43 0 -11 -60 -212 -134 -447 -243 -769 -476 -1547
-670 -2231 -114 -405 -216 -774 -216 -783 0 -4 337 -7 750 -7 l749 0 15 53 c8
28 62 226 120 438 271 996 634 2224 977 3299 45 142 52 157 84 179 55 37 106
52 129 37 11 -7 24 -20 30 -29z m-5000 -29 c19 -27 20 -84 3 -118 -7 -13 -26
-28 -43 -33 -27 -8 -44 -32 -143 -211 -152 -273 -522 -1017 -713 -1431 -224
-486 -700 -1623 -1755 -4190 -329 -801 -406 -972 -476 -1051 -37 -42 -42 -44
-91 -44 -60 0 -64 5 -87 106 -19 80 -19 1292 -1 1604 74 1276 217 2428 492
3980 94 528 138 751 155 776 19 29 48 38 76 24 27 -15 29 2 -55 -450 -393
-2125 -605 -4098 -582 -5428 3 -202 9 -392 14 -422 l7 -55 27 45 c88 147 319
678 560 1285 455 1144 547 1375 658 1645 374 908 765 1803 1165 2665 410 884
661 1325 755 1325 10 0 26 -10 34 -22z"/>
</g>
</svg>
